# xmcd CD database file
#
# Track frame offsets:
#	150
#	15370
#	31825
#	42545
#	48249
#	54842
#	63999
#	74397
#
# Disc length: 1062 seconds
#
# Revision: 0
# Processed by: cddbd v1.5.1PL0 Copyright (c) Steve Scherf et al.
# Submitted via: CDex 1.51
#
DISCID=5f042408
DTITLE=ダイソー - 軍歌・兵隊ソング集
DYEAR=2004
DGENRE=Soul
TTITLE0=ラバウル小唄
TTITLE1=敵は幾万
TTITLE2=愛国行進曲
TTITLE3=つわものの歌
TTITLE4=荒鷲の歌
TTITLE5=海軍小唄
TTITLE6=南の花嫁さん
TTITLE7=軍艦マーチ
EXTD=YEAR: 2004
EXTT0=
EXTT1=
EXTT2=
EXTT3=
EXTT4=
EXTT5=
EXTT6=
EXTT7=
PLAYORDER=
